<svg xmlns="http://www.w3.org/2000/svg" width="900" height="1600" viewBox="0 0 900 1600">
<defs>
<linearGradient id="g" x1="0" y1="0" x2=".2" y2="1">
<stop offset="0" stop-color="#2c3136"/><stop offset=".5" stop-color="#15191d"/><stop offset="1" stop-color="#0b0d10"/>
</linearGradient>
<linearGradient id="s" x1="0" y1="0" x2="1" y2="1">
<stop offset="0" stop-color="#f7fafc"/><stop offset=".16" stop-color="#8e969e"/><stop offset=".34" stop-color="#e8edf1"/>
<stop offset=".55" stop-color="#6a727a"/><stop offset=".74" stop-color="#d5dbe1"/><stop offset="1" stop-color="#9aa3ab"/>
</linearGradient>
<linearGradient id="c" x1="0" y1="0" x2="1" y2="0">
<stop offset="0" stop-color="#5cefff" stop-opacity="0"/><stop offset=".5" stop-color="#b8fbff" stop-opacity=".9"/><stop offset="1" stop-color="#5cefff" stop-opacity="0"/>
</linearGradient>
<radialGradient id="v" cx="50%" cy="46%" r="62%">
<stop offset="0" stop-color="#1a2128"/><stop offset="1" stop-color="#080a0c"/>
</radialGradient>
<pattern id="b" width="3" height="4" patternUnits="userSpaceOnUse">
<line x1="0" y1="1.2" x2="3" y2="1.2" stroke="#fff" stroke-opacity=".16" stroke-width=".45"/>
</pattern>
<mask id="m">
<rect x="36" y="36" width="828" height="1528" rx="42" fill="#fff"/>
<rect x="58" y="58" width="784" height="1484" rx="30" fill="#000"/>
</mask>
<filter id="f" x="-30%" y="-30%" width="160%" height="160%">
<feGaussianBlur stdDeviation="1.6" result="a"/><feMerge><feMergeNode in="a"/><feMergeNode in="SourceGraphic"/></feMerge>
</filter>
</defs>
<rect width="900" height="1600" fill="#070809"/>
<rect x="18" y="18" width="864" height="1564" rx="52" fill="url(#g)"/>
<rect x="36" y="36" width="828" height="1528" rx="42" fill="url(#s)"/>
<rect x="36" y="36" width="828" height="1528" rx="42" fill="url(#b)" mask="url(#m)"/>
<rect x="52" y="52" width="796" height="1496" rx="34" fill="none" stroke="#0e1216" stroke-width="6"/>
<rect x="70" y="70" width="760" height="1460" rx="28" fill="url(#v)" stroke="#2c343c" stroke-width="1"/>
<rect x="156" y="118" width="588" height="132" rx="10" fill="#0c1014" stroke="#465058" stroke-width="1.1"/>
<rect x="170" y="132" width="560" height="104" rx="6" fill="none" stroke="#2a333a" stroke-width=".7"/>
<rect x="170" y="132" width="560" height="52" rx="6" fill="#fff" opacity=".025"/>
<g fill="none" stroke="#3ad4e4" transform="translate(450 890)">
<circle r="78" stroke-width=".6" opacity=".35"/>
<circle r="118" stroke-width=".8" opacity=".55"/>
<circle r="164" stroke-width=".55" stroke-dasharray="3 8" opacity=".5"/>
<circle r="214" stroke-width=".45" opacity=".32"/>
<circle r="268" stroke-width=".4" stroke-dasharray="1 10" opacity=".28"/>
<circle r="324" stroke-width=".35" opacity=".18"/>
<path d="M-96-70a128 128 0 0 1 192 0" stroke-width=".7" opacity=".4"/>
<path d="M118 86a150 150 0 0 1-96 70" stroke-width=".6" opacity=".28"/>
</g>
<g stroke="#7eefff" stroke-width="1" opacity=".35" stroke-linecap="square">
<line x1="450" y1="542" x2="450" y2="578"/><line x1="450" y1="1202" x2="450" y2="1238"/>
<line x1="122" y1="890" x2="158" y2="890"/><line x1="742" y1="890" x2="778" y2="890"/>
</g>
<g transform="translate(450 890)" fill="none" stroke="#c8fdff" stroke-linecap="round" filter="url(#f)" opacity=".82">
<path stroke-width="1.5" d="M1-6c7-1 12 6 10 13-3 8-12 9-16 3-3-6 0-13 6-16"/>
<path stroke-width="1.25" d="M-2 22c-16-2-24-18-16-32 9-16 30-16 38-1 8 16-2 34-18 36"/>
<path stroke-width="1.15" d="M-6 36C-34 30-46 6-36-16c12-24 42-28 58-8 16 22 6 50-16 60"/>
<path stroke-width="1.05" d="M-8 50C-46 42-64 8-50-22-32-52 10-60 36-42 62-22 66 22 42 48 22 70-8 64-8 50"/>
<path stroke-width=".95" d="M-4 64C-54 54-78 10-60-28-38-68 14-80 48-54 82-28 84 30 52 62 24 90-4 80-4 64"/>
<path stroke-width=".85" d="M2 76C-58 66-90 12-68-36-44-86 20-100 60-66 98-32 96 40 56 76 22 106 2 96 2 76"/>
<path stroke-width=".75" opacity=".7" d="M10 18c8 10 6 22-4 26M-22-8c-6-10-2-20 8-22M24-24c14 2 20 16 12 28"/>
<path stroke-width=".7" opacity=".55" d="M-30 8c-4 16 2 28 14 32M18 46c12-2 20-14 16-26"/>
</g>
<g fill="#e8a33c">
<circle cx="450" cy="566" r="2.3"/><circle cx="450" cy="1214" r="2.3"/>
<circle cx="146" cy="890" r="2.3"/><circle cx="754" cy="890" r="2.3"/>
<circle cx="612" cy="726" r="1.5" opacity=".85"/><circle cx="288" cy="1054" r="1.5" opacity=".85"/>
<circle cx="626" cy="1054" r="1.3" opacity=".55"/><circle cx="274" cy="726" r="1.3" opacity=".55"/>
</g>
<g fill="none" stroke="#e8a33c" stroke-width="1" opacity=".7" stroke-linecap="square">
<line x1="92" y1="118" x2="92" y2="136"/><line x1="92" y1="118" x2="110" y2="118"/>
<line x1="808" y1="118" x2="808" y2="136"/><line x1="808" y1="118" x2="790" y2="118"/>
<line x1="92" y1="1482" x2="92" y2="1464"/><line x1="92" y1="1482" x2="110" y2="1482"/>
<line x1="808" y1="1482" x2="808" y2="1464"/><line x1="808" y1="1482" x2="790" y2="1482"/>
</g>
<polyline fill="none" stroke="url(#c)" stroke-width="1.5" points="150,1324 188,1324 206,1302 226,1346 248,1310 268,1336 300,1324 334,1324 356,1294 378,1354 402,1306 424,1338 450,1316 476,1332 504,1322 534,1286 558,1360 582,1300 606,1342 630,1318 662,1324 700,1324 750,1324"/>
<polyline fill="none" stroke="#49d7ea" stroke-width=".6" opacity=".28" points="150,1336 196,1336 220,1322 244,1350 270,1330 310,1336 348,1326 372,1348 398,1328 430,1342 462,1332 492,1346 524,1324 552,1352 580,1334 612,1344 646,1336 750,1336"/>
<g fill="none" stroke="#9aa3ab" stroke-opacity=".35" stroke-width=".6">
<line x1="48" y1="420" x2="66" y2="420"/><line x1="834" y1="420" x2="852" y2="420"/>
<line x1="48" y1="1180" x2="66" y2="1180"/><line x1="834" y1="1180" x2="852" y2="1180"/>
</g>
</svg>
